<svg t="1641661630663" class="icon" viewBox="0 0 1024 1024" version="1.1" xmlns="http://www.w3.org/2000/svg" p-id="3003"
     width="200" height="200">
    <path d="M924 64 100 64C44.8 64 0 108.8 0 164l0 568c0 55.2 44.8 100 100 100l380 0 0 64L224 896c-17.7 0-32 14.3-32 32s14.3 32 32 32l576 0c17.7 0 32-14.3 32-32s-14.3-32-32-32L544 896l0-64 380 0c55.2 0 100-44.8 100-100L1024 164C1024 108.8 979.2 64 924 64zM960 732c0 19.9-16.1 36-36 36L100 768c-19.9 0-36-16.1-36-36L64 164c0-19.9 16.1-36 36-36l824 0c19.9 0 36 16.1 36 36L960 732z"
          p-id="3004"></path>
    <path d="M857.7 674.3m-38 0a38 38 0 1 0 76 0 38 38 0 1 0-76 0Z" p-id="3005"></path>
</svg>
