<svg t="1640662971574" class="icon" viewBox="0 0 1024 1024" version="1.1" xmlns="http://www.w3.org/2000/svg" p-id="5666"
     width="200" height="200">
    <path d="M486.4 913.8c-12.2 0-24.3-4.4-34-13.2-30.4-27.6-62.4-56.1-95-84.7-13.7-12-27.7-24.2-41.3-35.9-15.2-13.1-30.8-26.6-46.2-40.2-19.7-17.4-39.6-35.4-58.9-52.8-8.6-7.7-17.2-15.5-25.8-23.3-6.6-5.9-10.4-13.9-10.7-22.3L162 322.9c-0.4-9.5 3.7-18.6 11.3-25.1 7.5-6.5 17.7-9.7 28-8.8l5.7 0.5c19.8 1.7 34.3 17.7 32.5 35.8-0.5 5-2.2 9.7-4.9 13.7l11.2 287c5.2 4.7 10.5 9.4 15.7 14.2 19.1 17.3 38.9 35.1 58.3 52.3 15.1 13.3 30.6 26.8 45.7 39.7 13.7 11.8 27.9 24.1 41.8 36.3 27.8 24.5 55.3 48.9 81.7 72.7 18.8-12.7 37.7-25.8 56.1-38.5l4.8-3.3c14.5-10 29-20.1 43.4-30.2 17.9-12.5 36.5-25.4 54.8-38 22.9-15.8 46.2-31.7 68.7-47.1 15.6-10.6 31.1-21.3 46.7-31.9l22.9-350.5-17 7.9c-44.1 20.5-89.7 41.6-134.5 62.6-18.4 8.6-37.1 17.6-55.2 26.2-16.3 7.8-33.3 15.9-50 23.8-6.9 3.3-13.3 4.7-17.6 5.6-1.1 0.2-2.1 0.5-2.7 0.6-19.1 5.2-39.1-4.7-44.8-22.1-5.7-17.4 5.1-35.7 24.2-40.9 2.4-0.7 4.6-1.1 6.3-1.5 0.8-0.2 1.8-0.4 2.4-0.6 16.2-7.6 32.8-15.5 48.7-23.2 18.2-8.7 37.1-17.8 55.8-26.5 44.9-21 90.6-42.2 134.7-62.7L771 235c8.4-3.9 16.8-7.7 25.7-11.7 4.2-1.9 8.6-3.9 13.2-6 11.5-5.2 25.2-4.4 35.9 2 10.7 6.5 16.8 17.7 16.1 29.4l-27.5 421.4c-0.6 8.9-5.1 17.3-12.6 23.1-1.3 1-2.5 2-3.7 2.9-3.1 2.5-6.4 5.1-10.1 7.7-16 11-32.1 22-48.1 32.9-22.5 15.4-45.7 31.2-68.5 46.9-18.2 12.5-36.6 25.4-54.5 37.8-14.5 10.1-29.1 20.2-43.6 30.3l-4.8 3.3c-23.7 16.4-48.3 33.4-72.8 49.7-9.1 6.1-19.2 9.1-29.3 9.1z"
          fill="currentColor" p-id="5667"></path>
    <path d="M508 731.4h-78.4c-9 0-18-0.5-26.8-2.3-1.1-0.2-2.2-0.6-3.3-0.8-7.3-1.7-11.6-6.1-13.6-12.6-1.6-4.9-2.2-10-2.2-15.1 0-23.5-0.1-47 0.1-70.5 0-3.9 0.7-7.9 1.5-11.7 1.9-8.7 7.8-14.1 17.2-16.4 7.7-1.9 15.5-2.7 23.4-2.9 8.5-0.2 17.1-0.2 25.6-0.2h136.6c8.4 0 16.8 0.6 25.1 2.2 11.8 2.4 16.8 7.1 18.7 18 0.7 4.1 1.1 8.2 1.1 12.3 0.1 22.5 0.1 45 0 67.5 0 5.4-0.5 10.8-2 16-2.1 7.2-6.8 11.8-14.8 13.6-7 1.6-14.2 2.4-21.4 2.7-2.7 0.1-5.5 0.2-8.2 0.2H508z m-46.3-36.8h3.2c2.7 0 5.5 0.1 8.2-0.1 3.6-0.1 4.8-1.3 4.9-4.6 0.1-1.3 0-2.6 0-3.9-0.1-3.6-2-5.4-6-5.4H450.2c-3 0.1-4.3 1.3-4.6 4-0.1 1.6-0.1 3.2-0.1 4.8 0 3.9 1.3 5.1 5.6 5.1 3.5 0.1 7.1 0.1 10.6 0.1z m92.8 0h1.6c3.4 0 6.7 0.1 10.1-0.1 3-0.1 4.3-1.1 4.5-3.5 0.2-2 0.2-4 0-6-0.2-2.6-2.1-4.2-4.9-4.2-7.7-0.1-15.4-0.1-23.1 0-2.7 0-4 1.3-4.3 3.8-0.2 1.7-0.2 3.5-0.1 5.2 0.2 3.8 1.4 4.8 5.5 4.9 3.6-0.1 7.2-0.1 10.7-0.1z m-92.7-45.2s0-0.1 0 0c4-0.1 8.1 0 12.1-0.1 2.7-0.1 3.6-1.1 3.8-3.5 0.2-1.7 0.2-3.5 0.1-5.2-0.2-3.2-2.1-5-5.6-5-7.2-0.1-14.3-0.1-21.5 0-3.3 0-5.1 1.6-5.3 4.6-0.1 1.6-0.1 3.2 0 4.8 0.1 3.2 1.2 4.3 4.6 4.4 4.1 0.1 8 0 11.8 0z m93 0c3.4 0.1 6.7 0.1 10.1 0.1 0.6 0 1.3-0.1 1.9-0.2 2.8-0.3 3.8-1.3 4-3.8 0.1-1.7 0.1-3.5 0-5.2-0.1-2.9-2-4.7-5.2-4.7-7.4-0.1-14.8-0.1-22.3 0-2.9 0-4.6 1.6-4.8 4.2-0.2 1.8-0.2 3.7 0 5.5 0.2 3 1.2 4 4.5 4.1 3.9 0.1 7.9 0 11.8 0z"
          fill="currentColor" p-id="5668"></path>
    <path d="M570.5 590c-8.7 0-17.4-0.1-26.1 0-5.2 0-10-1.4-14.7-3.3-3.7-1.5-7.6-2.9-11.3-4.3-2.3-0.9-4.6-0.6-6.7 0.5-1.4 0.7-2.8 1.3-4.1 2.2-5.3 3.8-11.2 5-17.9 5-19.7-0.1-39.3-0.1-59 0-10.4 0.1-20.8 0.5-30.9 2.9-3.4 0.8-6.7 1.9-9.9 3.3-7.9 3.3-12 9.4-13.9 16.9-1 4.2-1.7 8.4-2.3 12.7-0.6 4.1-2.8 7-6.6 8-3.9 1-7.7-0.4-10.3-3.7-0.6-0.7-1-1.4-1.5-2.2-2.3-4.3-3.7-8.9-4.4-13.6-0.6-3.6-0.9-7.2 0.2-10.8 2-6.7 6.6-11.3 13.4-14.3 4.7-2.1 9.8-3 15-3.9 11.4-1.9 22.3-5.1 33.2-8.6 10-3.2 19.8-6.8 29.6-10.3 2.1-0.7 4-1.9 6-2.9 1.2-0.6 1.3-1.5 0.3-2.2-3-2.2-6.1-4.4-9.2-6.5-1-0.7-2.2-0.6-3.3 0.1-1.1 0.7-2.4 1.3-3.4 2.1-4.9 4.2-10.7 6.9-16.8 9.3-6.8 2.7-13.8 4.9-21.2 6-8.7 1.3-15.9-0.9-22.1-6.3-5.1-4.5-9.5-9.5-12.5-15.5-2.7-5.4-2.3-10.6 0.8-15.8 3.3-5.5 8.1-9.8 13.1-14 8.6-7.1 17.2-14 25.6-21.2 9.1-7.8 16.8-16.8 24.3-26 2.2-2.7 4.7-5.2 7.2-7.7 4.5-4.5 10.1-7.1 16.7-7.9 9.7-1.1 19.3-1 28.9 0.5 6.2 1 10.7 4.2 13.9 9.1 0.8 1.2 1.7 2.5 2.5 3.6 2.3 3 5.4 4.6 9.4 4.8 4.6 0.2 9.3 0.5 13.9 0.5h78.4c4.9 0 9.7 0.7 14.2 2.2 14 4.8 18.5 15.2 15.3 27.1-2 7.5-6.6 13.9-11.8 19.9-8.6 10.1-19.1 18.3-30.1 26-1.5 1.1-3 2.3-4.3 3.6-1.5 1.5-1.2 2.8 0.5 4.1 0.8 0.6 1.8 1.1 2.7 1.4 16.8 6.2 33.6 12.2 51.3 16 5.4 1.2 10.9 2.2 15.8 4.8 7.8 4.1 13.1 9.9 14.3 18.2 1 6.3-0.3 12.5-2.9 18.4-1.1 2.4-2.6 4.7-4.2 6.9-1.2 1.7-3.2 2.6-5.5 2.8-5 0.4-7.7-1.9-8.4-6.8-0.6-3.8-1.4-7.7-2.5-11.4-2.3-7.7-7.9-12.6-16-15.3-5.9-2-12.1-3.1-18.3-3.4-11.6-0.6-23.2-0.8-34.9-1.2 0.5 0 0.5 0.1 0.5 0.2zM515 517.8c-6.5 0-13.1-0.1-19.6 0-1.4 0-3.1-0.2-3.7 1.3-0.5 1.4 1 2.2 2 3 4.1 3 8.4 5.6 13.3 7.4 3.9 1.4 8 2.1 12.2 1.4 7.7-1.3 13.9-5.2 19.7-9.8 0.2-0.1 0.3-0.3 0.4-0.4 0.9-1 0.7-1.8-0.7-2.2-1.3-0.3-2.6-0.6-3.9-0.6-6.5-0.1-13.1-0.1-19.7-0.1z"
          fill="currentColor" p-id="5669"></path>
</svg>
