<svg t="1640674607923" class="icon" viewBox="0 0 1024 1024" version="1.1" xmlns="http://www.w3.org/2000/svg" p-id="8491"
     width="200" height="200">
    <path d="M682.666667 0a42.666667 42.666667 0 0 1 25.941333 8.789333l4.266667 3.712 207.061333 207.061334a64 64 0 0 1 18.432 38.954666l0.298667 6.314667V554.666667a42.666667 42.666667 0 0 1-85.034667 4.992L853.333333 554.666667V273.664L664.96 85.333333H170.666667v853.333334h384a42.666667 42.666667 0 0 1 42.368 37.674666L597.333333 981.333333a42.666667 42.666667 0 0 1-37.674666 42.368L554.666667 1024H149.333333a64 64 0 0 1-63.701333-57.856L85.333333 960v-896A64 64 0 0 1 143.189333 0.298667L149.333333 0H682.666667z"
          p-id="8492"></path>
    <path d="M298.666667 512h298.666666v85.333333H298.666667zM298.666667 341.333333h426.666666v85.333334H298.666667zM298.666667 682.666667h213.333333v85.333333H298.666667zM977.365333 670.165333l16.469334 16.469334a42.666667 42.666667 0 0 1 0 60.330666l-246.869334 246.869334a42.666667 42.666667 0 0 1-60.330666 0l-16.469334-16.469334a42.666667 42.666667 0 0 1 0-60.330666l246.869334-246.869334a42.666667 42.666667 0 0 1 60.330666 0z"
          p-id="8493"></path>
    <path d="M993.834667 977.365333l-16.469334 16.469334a42.666667 42.666667 0 0 1-60.330666 0l-246.869334-246.869334a42.666667 42.666667 0 0 1 0-60.330666l16.469334-16.469334a42.666667 42.666667 0 0 1 60.330666 0l246.869334 246.869334a42.666667 42.666667 0 0 1 0 60.330666z"
          p-id="8494"></path>
</svg>
