<svg t="1640662853526" class="icon" viewBox="0 0 1024 1024" version="1.1" xmlns="http://www.w3.org/2000/svg" p-id="4509"
     width="200" height="200">
    <path d="M511.969884 0A434.541968 434.541968 0 0 0 78.662667 433.337333V786.626669A79.536027 79.536027 0 0 0 0 865.982001v78.662667a79.566143 79.566143 0 0 0 79.355332 79.355332h865.229104A79.475796 79.475796 0 0 0 1023.939768 944.644668v-78.662667a79.596259 79.596259 0 0 0-78.662667-79.355332V433.337333A434.481736 434.481736 0 0 0 511.969884 0z m-0.271043 79.897418h0.210811a353.229104 353.229104 0 0 1 353.379684 353.229104V786.626669H158.650432V433.337333A353.25922 353.25922 0 0 1 511.698841 79.897418z m432.102582 786.747132v77.247221H80.047997v-77.247221z"
          fill="currentColor" p-id="4510"></path>
    <path d="M321.818246 725.340862h380.333392a40.23481 40.23481 0 0 0 40.054115-40.204694v-14.003882a40.204694 40.204694 0 0 0-40.054115-40.204694h-22.225516v-143.984a167.926122 167.926122 0 0 0-167.835774-167.986354 168.136933 168.136933 0 0 0-167.896006 167.986354v144.014116h-22.315864a40.174578 40.174578 0 0 0-40.054115 40.204694v13.973766a40.114346 40.114346 0 0 0 40.054115 40.204694z m109.712135-238.487618a80.469619 80.469619 0 1 1 160.909123-2.077995v146.092112h-160.818776z"
          fill="currentColor" p-id="4511"></path>
</svg>
