<svg t="1639828725255" class="icon" viewBox="0 0 1028 1024" version="1.1" xmlns="http://www.w3.org/2000/svg" p-id="1624"
     width="200" height="200">
    <path d="M631.874913 676.029564v307.086828a39.857982 39.857982 0 0 0 79.715964 0v-221.853699l250.818816 249.863922a38.054293 38.054293 0 0 0 53.933826-53.721628l-250.818816-249.863922h222.808593a39.681149 39.681149 0 1 0 0-79.397665h-308.25392a43.712924 43.712924 0 0 0-48.204463 47.886164z m-280.137597-46.719071H43.483396a39.716516 39.716516 0 1 0 0 79.397665h222.808593L15.437806 958.430614a38.054293 38.054293 0 1 0 53.933826 53.721627l250.818816-249.863922v221.853699a39.857982 39.857982 0 0 0 79.715964 0v-307.086827c-2.511017-32.537128-18.850314-47.709332-48.169096-47.709332z m325.831042-234.691718h308.25392a39.716516 39.716516 0 1 0 0-79.397666h-222.808593l250.818816-249.863922A38.054293 38.054293 0 0 0 959.898675 11.63556L709.256691 261.711681V39.857982a39.857982 39.857982 0 0 0-79.715963 0V346.944809a44.773917 44.773917 0 0 0 48.062997 47.709332zM397.395394 347.935069V40.848242a39.857982 39.857982 0 0 0-79.715963 0v221.853699L66.860615 12.838019A38.054293 38.054293 0 0 0 12.926789 66.559646l250.818816 249.863922h-222.808593a39.716516 39.716516 0 1 0 0 79.397666h308.25392c31.865165-1.167093 48.204462-16.339297 48.204462-47.886165z"
          p-id="1625"></path>
</svg>
