<svg t="1640331447442" class="icon" viewBox="0 0 1024 1024" version="1.1" xmlns="http://www.w3.org/2000/svg" p-id="8581"
     width="200" height="200">
    <path d="M856.746667 307.2h-119.466667c-8.533333-114.346667-100.693333-204.8-213.333333-204.8s-204.8 90.453333-213.333334 204.8h-136.533333c-37.546667 0-68.266667 30.72-68.266667 68.266667v460.8c0 37.546667 30.72 68.266667 68.266667 68.266666h682.666667c37.546667 0 68.266667-30.72 68.266666-68.266666V375.466667c0-37.546667-30.72-68.266667-68.266666-68.266667zM523.946667 136.533333c83.626667 0 168.96 81.92 177.493333 170.666667H344.746667c10.24-88.746667 93.866667-170.666667 179.2-170.666667zM157.013333 358.4h716.8v165.546667h-716.8V358.4z m0 494.933333V546.133333h716.8v307.2h-716.8z"
          fill="" p-id="8582"></path>
</svg>
