<svg t="1640659620697" class="icon" viewBox="0 0 1024 1024" version="1.1" xmlns="http://www.w3.org/2000/svg" p-id="2080"
     width="200" height="200">
    <path d="M832 112a16 16 0 0 1 16 16v768a16 16 0 0 1-16 16H192a16 16 0 0 1-16-16V128a16 16 0 0 1 16-16h640m0-48H192a64 64 0 0 0-64 64v768a64 64 0 0 0 64 64h640a64 64 0 0 0 64-64V128a64 64 0 0 0-64-64z"
          fill="#ffffff" p-id="2081"></path>
    <path d="M768 192v48H256v-48h512m16-48H240a32 32 0 0 0-32 32v80a32 32 0 0 0 32 32h544a32 32 0 0 0 32-32v-80a32 32 0 0 0-32-32zM272 320h-48v144h48v-48h504a24 24 0 0 0 0-48H272v-48zM272 528h-48v144h48v-48h504a24 24 0 0 0 0-48H272v-48zM272 736h-48v144h48v-48h504a24 24 0 0 0 0-48H272v-48z"
          fill="#ffffff" p-id="2082"></path>
</svg>
