<svg t="1640337288517" class="icon" viewBox="0 0 1096 1024" version="1.1" xmlns="http://www.w3.org/2000/svg" p-id="10372" width="200" height="200"><path d="M1036.781144 685.584279l-1.413141 1.455324-253.88019 267.653037-127.203741 21.408025h1.834974s-1.602965 0.105458-2.404448 0.105458c0 0 9.217051 15.818737 0 0.021092-7.360986-12.633898-1.518599-9.849801 1.160041-12.802632l6.918061-112.608319 275.583498-295.93694c14.215772-15.20708 31.5742-23.51719 48.890444-23.517189 14.511055 0 28.515911 5.779112 40.369418 16.662403l48.848262 44.651023c26.912945 24.698322-13.709572 66.312147-38.703178 92.908718z m-344.110269 188.285159l-23.643739 86.096115 86.918689-28.262811 218.530585-233.590023-63.27495-57.875487-218.530585 233.632206z m347.084192-262.717592l-0.084367-0.063275-45.536872-41.55055-0.063275-0.12655a13.119006 13.119006 0 0 0-8.162469-2.763006 13.097915 13.097915 0 0 0-8.816309 3.332481l-0.084367 0.063275-50.24031 52.307291 63.253858 57.812213 50.282493-52.244017 0.063275-0.105458a12.929181 12.929181 0 0 0-0.611657-16.662404zM864.968564 129.819303c0-10.798925 8.373385-21.09165 4.534704-30.498526-4.239422-10.377092-9.259234-22.293874-17.168603-29.971234-14.426689-14.025947-35.328514-21.808766-56.926363-21.808766H123.449427c-44.165915 0-81.413769 37.859512-81.413769 82.278526v741.519137l0.063275 0.063275h-0.063275v2.720823c2.741914 8.774126 19.277768 40.200685 102.568694 102.927251l2.594273 2.467723 73.778591-59.541727s28.874469-20.712 60.237752 0.506199c8.225743 5.568196 16.451487 13.836122 24.171031 23.01099l48.067871 35.201964 73.145841-58.80352s29.865776-19.910518 57.980946-0.611658c2.530998 1.750607 4.534705 3.480122 6.13767 5.230729l75.508107 57.601296 0.189825 34.484848a50.050485 50.050485 0 0 1-33.978648-13.055731l-75.824482-64.835732-68.062754 64.835732a50.451227 50.451227 0 0 1-35.012139 13.878305c-13.076823 0-25.499805-4.851079-34.822314-13.709572l-67.851838-64.835732-68.800962 65.405206a50.49341 50.49341 0 0 1-35.012139 13.920489 50.155944 50.155944 0 0 1-34.822314-13.751755L32.481141 928.454628a42.626225 42.626225 0 0 1-6.496228-7.846094C7.276619 905.675646 0 884.499629 0 861.151173v-13.836122h0.084367V129.819303C0.084367 61.419083 55.428856 5.800402 123.449427 5.800402h671.958875c68.020571 0 111.511553 55.618681 111.511553 124.018901V455.052545H864.968564V129.819303zM207.162186 259.153301h-0.021092c-16.49367 0-29.992326-3.564489-30.055601-21.154925 0-17.463886 13.414289-20.501084 30.055601-20.501084h301.104394c16.578037 0 30.055601 2.995014 30.055601 20.501084 0 17.484978-13.414289 21.154925-30.055601 21.154925H207.162186z m541.844486 189.508474c0 17.463886-13.456473 21.133833-30.097784 21.133833H207.162186c-16.514762 0-30.013418-3.543397-30.013418-21.133833 0-17.506069 13.435381-21.197108 30.076693-21.197108h511.831068c16.683495 0 29.950143 3.754314 29.950143 21.197108zM177.085493 638.992824c0-17.527161 13.435381-21.197108 30.076693-21.197108h371.191947c16.662403 0 29.950143 3.71213 29.950143 21.197108 0 17.442794-13.456473 20.501084-30.097785 20.501084H207.162186c-16.514762 0-30.076693-2.952831-30.076693-20.501084z" p-id="10373"></path></svg>
