<svg t="1640674171506" class="icon" viewBox="0 0 1168 1024" version="1.1" xmlns="http://www.w3.org/2000/svg" p-id="7479"
     width="200" height="200">
    <path d="M903.08919594 237.23163781c-16.13552344-9.32755406-35.24873719-0.26722875-49.45003407 15.01570782L645.26440531 442.50145156l-164.68922718-117.37702312c-18.12065062-11.541735-25.19584875-17.81524594-40.83508969-14.69757844a33.44176219 33.44176219 0 0 0-8.5004175 2.40505875c-0.58535812 0.29267906-1.2725175 0.26722875-1.87060125 0.55990781s-0.86531156 0.78896063-1.42521938 1.08163969a32.64007594 32.64007594 0 0 0-6.61709156 5.00099438 31.68568781 31.68568781 0 0 0-5.09007094 5.73905437c-0.330855 0.49628156-0.82713656 0.75078563-1.11981469 1.2725175l-168.59585624 201.69403875a34.09074656 34.09074656 0 0 0 12.34342031 46.35781594c16.11007312 9.35300437 32.60190094 3.88117875 46.05241219-12.44522157l148.74458156-177.75798374L609.72298906 496.91430406a235.2248775 235.2248775 0 0 0 21.53099719 16.08462188c13.99769344 9.12395156 29.16610313 3.53759906 44.71626844-11.45265844l236.05201406-215.56448063c18.03157406-18.22245188 7.16427375-39.44804531-8.9076225-48.75014906zM1085.21191438 39.63510594H73.33137125a33.73444125 33.73444125 0 0 0 0 67.44343218H107.07853813v607.09269469a67.44343219 67.44343219 0 0 0 67.44343312 67.44343313h291.33017812L381.94233875 936.21282875c-10.34556844 15.27021094-4.21203281 34.94333344 13.70501437 43.80005531s40.83508969 3.58849969 51.21883407-11.75806219l93.68274469-172.52793562a27.85541062 27.85541062 0 0 0 4.56833812-14.09949563h68.34692062a28.14808969 28.14808969 0 0 0 4.58106375 14.09949563l93.65729438 172.52793562c10.37101875 15.34656187 33.30178594 20.55115875 51.21883313 11.75806219s24.05058281-28.49166938 13.70501531-43.80005531L692.69113625 781.62739063h291.34290375a67.44343219 67.44343219 0 0 0 67.44343219-67.44343219V107.09126375h33.73444219a33.73444125 33.73444125 0 1 0 0-67.44343312z m-101.17787438 640.81441125a33.73444125 33.73444125 0 0 1-33.73444125 33.73444125H208.28186281A33.70899094 33.70899094 0 0 1 174.52197125 680.44951719V107.15488906h33.36541125c0.10180125 0 0.22905281-0.06362625 0.35630438-0.06362531h742.05591187c0.08907656 0 0.22905281 0.06362625 0.33085406 0.06362531h33.40358719z m0 0"
          p-id="7480"></path>
    <path d="M744.06267125 992c-15.38473781 0-30.23501813-6.94794563-38.684535-19.45679438l-0.38175469-0.63625874-93.51731812-172.24798126a33.91259437 33.91259437 0 0 1-4.54288782-10.39646906h-55.31633999a33.4672125 33.4672125 0 0 1-4.54288782 10.40919375l-93.69547125 172.55338594-0.2036025 0.30540469c-12.57247406 18.61693219-39.32079375 24.91589438-60.9026925 14.34127312-11.0072775-5.44637531-18.94778719-14.76120375-21.82367625-25.59032906a35.50324125 35.50324125 0 0 1 4.93736813-29.01340125l77.62357312-142.9928025H174.52197125a75.193065 75.193065 0 0 1-75.07853906-75.07853813V114.72636875H73.33137125a41.36954719 41.36954719 0 0 1 0-82.71364313h1011.88054313a41.36954719 41.36954719 0 0 1 0 82.71364313h-26.08661157v599.44486406a75.18033938 75.18033938 0 0 1-75.07853812 75.07853813H705.53083906l77.62357313 142.9928025a35.51596594 35.51596594 0 0 1 4.93736812 29.02612687c-2.86316437 10.82912438-10.81639969 20.14395375-21.79822687 25.57760344a50.4680475 50.4680475 0 0 1-22.23088219 5.15369625z m-25.84483219-27.72815813c8.37316594 12.02529094 26.82467062 16.00827094 41.33137125 8.90762251 7.01157187-3.46124813 12.03801656-9.22575281 13.78136625-15.79194282a20.47480781 20.47480781 0 0 0-3.0413175-16.88630906l-0.38175562-0.63625875-90.04334438-165.87266812h304.131705a59.88467813 59.88467813 0 0 0 59.80832719-59.80832719V99.45615781h41.36954719a26.09933625 26.09933625 0 0 0 0-52.17322125H73.33137125a26.09933625 26.09933625 0 0 0 0 52.17322125H114.71364406v614.715075a59.91012844 59.91012844 0 0 0 59.80832719 59.80832719h304.131705l-90.34874906 166.50892781a20.47480781 20.47480781 0 0 0-3.0413175 16.88630813c1.74334875 6.56619094 6.76979344 12.31797 13.80681656 15.80466844 14.493975 7.10064844 32.94548063 3.10494281 41.30592094-8.9076225l93.61911937-172.51521094 0.2036025-0.30540375a20.18212875 20.18212875 0 0 0 3.28309594-10.34556844l0.48355687-7.11337312h82.61184188l0.48355687 7.11337312a20.36028188 20.36028188 0 0 0 3.30854532 10.37101875l0.36903093 0.59808281z m232.08175969-242.46550312H208.28186281a41.40772219 41.40772219 0 0 1-41.3949975-41.35682156V99.51978406h40.35153282a8.18228812 8.18228812 0 0 1 1.00528875-0.06362625h742.05591187a7.87688438 7.87688438 0 0 1 0.99256313 0.06362625h40.36425843v580.92973313a41.40772219 41.40772219 0 0 1-41.35682156 41.35682156zM182.15707625 114.789995v565.65952219a26.12478656 26.12478656 0 0 0 26.09933625 26.08661062h742.04318625a26.12478656 26.12478656 0 0 0 26.09933531-26.08661062V114.789995H950.63045281a7.927785 7.927785 0 0 1-1.00528875-0.06362625H208.87994563a8.00413594 8.00413594 0 0 1-1.00528876 0.06362625z m92.75380781 472.10402813a39.44804531 39.44804531 0 0 1-19.90217531-5.67542813 41.81492813 41.81492813 0 0 1-15.14295937-56.80518563l0.330855-0.58535812 0.43265531-0.52173281 168.35407875-201.27410813a10.37101875 10.37101875 0 0 1 1.2725175-1.46339531 39.54984656 39.54984656 0 0 1 5.84085562-6.57891562 40.36425844 40.36425844 0 0 1 7.54602938-5.76450469 9.88746187 9.88746187 0 0 1 2.46868406-1.65427313 10.74004875 10.74004875 0 0 1 2.39233312-0.78896062 40.51696031 40.51696031 0 0 1 9.95108719-2.78681344c16.77178219-3.283095 26.22658781 2.85043969 40.51696031 12.1143675 1.78152469 1.15799063 3.66485063 2.3796075 5.68815375 3.66485063l0.330855 0.21632812 159.66278251 113.7503475 203.602815-185.88937031c18.75690938-20.05487719 41.20411969-26.27748844 58.65033656-16.19914875 12.03801656 6.93522094 20.18212875 18.29880281 21.81095156 30.38772 1.03073906 7.63510594-0.10180125 19.08776438-11.24905594 30.349545l-0.27995343 0.26722875-236.03928938 215.43722906c-13.45051125 12.95422875-33.72171656 25.56487875-54.10744781 12.29251969a242.63092969 242.63092969 0 0 1-22.02727969-16.36457625l-150.055275-108.34214813-144.18896906 172.34978344c-10.76549906 13.09420594-23.19799594 19.82582437-35.83409531 19.82582344z m-22.07818031-54.34922626a26.50654125 26.50654125 0 0 0 9.87473625 35.46506532c15.38473781 8.90762344 28.23716531-0.89076188 36.31765219-10.70187282l153.35109562-183.24253406 162.1696425 117.07161844a228.50598469 228.50598469 0 0 0 20.83111313 15.56289c6.23533594 4.05933094 16.66998094 7.36787719 35.24873719-10.56189563l0.15270281-0.13997718L906.72859625 280.48451094c5.35729875-5.47182563 7.63510594-11.33813156 6.84614437-17.44621594-0.97983844-7.31697656-6.46438969-14.67212813-14.30309812-19.18956563-13.14510656-7.63510594-29.26790438 2.04875344-40.04612813 13.60321313l-0.44538187 0.44538094L645.86248812 452.29983687l-169.56296906-120.81282093c-1.99785281-1.2725175-3.8175525-2.545035-5.62452843-3.62667469-13.53958687-8.79309656-18.61693219-12.07619156-29.44605657-9.91291219l-0.4962825 0.07635094a25.59032906 25.59032906 0 0 0-6.3625875 1.81970063 10.24376625 10.24376625 0 0 1-1.42521937 0.52173187 9.79838531 9.79838531 0 0 1-1.2725175 0.80168625 24.91589438 24.91589438 0 0 0-5.09007094 3.8175525l-0.21632812 0.20360344a24.17783437 24.17783437 0 0 0-3.8175525 4.35201 9.72203437 9.72203437 0 0 1-1.2725175 1.52702062l-0.29267907 0.34357969z m157.18137375-211.61967656l-0.10180125 0.13997719z"
          p-id="7481"></path>
</svg>
