<svg t="1640330874699" class="icon" viewBox="0 0 1024 1024" version="1.1" xmlns="http://www.w3.org/2000/svg" p-id="5119"
     width="200" height="200">
    <path d="M721.9 508.67c-121.98 0-221.22-99.24-221.22-221.23S599.92 66.22 721.9 66.22s221.23 99.24 221.23 221.22-99.24 221.23-221.23 221.23z m0-395.89c-96.31 0-174.66 78.35-174.66 174.66s78.35 174.67 174.66 174.67c96.32 0 174.67-78.36 174.67-174.67S818.22 112.78 721.9 112.78z"
          p-id="5120"></path>
    <path d="M710.98 933.15H166.56c-38.51 0-69.84-31.33-69.84-69.84V244.03c0-38.51 31.33-69.84 69.84-69.84H583.8l-17.34 33.88c-12.75 24.92-19.22 51.63-19.22 79.37 0 96.31 78.35 174.67 174.66 174.67 10.09 0 20.39-0.98 31.47-3l27.45-5v409.2c0 38.52-31.32 69.84-69.84 69.84z m-544.42-712.4c-12.84 0-23.28 10.44-23.28 23.28v619.29c0 12.83 10.44 23.28 23.28 23.28h544.42c12.84 0 23.28-10.45 23.28-23.28V508.3c-127.48 7.55-233.58-94.77-233.58-220.85 0-22.89 3.47-45.21 10.33-66.69H166.56z"
          p-id="5121"></path>
    <path d="M248.54 376.42h198.8v46.56h-198.8zM248.54 530.39h382.18v46.56H248.54zM248.54 684.37h382.18v46.56H248.54zM694.76 171.815l46.56-0.07 0.301 199.33-46.56 0.07z"
          p-id="5122"></path>
    <path d="M716.78 415.25l-78.13-69.15 30.86-34.86 48.57 43 56.98-46.23 29.33 36.15z" p-id="5123"></path>
</svg>
