<svg t="1641661880029" class="icon" viewBox="0 0 1024 1024" version="1.1" xmlns="http://www.w3.org/2000/svg" p-id="5712"
     width="200" height="200">
    <path d="M563.2 179.2h-25.6v-25.6c0-12.8-12.8-25.6-25.6-25.6s-25.6 12.8-25.6 25.6v25.6h-25.6c-12.8 0-25.6 12.8-25.6 25.6s12.8 25.6 25.6 25.6h25.6v25.6c0 12.8 12.8 25.6 25.6 25.6s25.6-12.8 25.6-25.6v-25.6h25.6c12.8 0 25.6-12.8 25.6-25.6s-12.8-25.6-25.6-25.6z"
          p-id="5713"></path>
    <path d="M686.08 596.48c51.2-46.08 81.92-112.64 81.92-186.88V117.76c0-10.24-5.12-20.48-15.36-23.04-33.28-12.8-122.88-43.52-240.64-43.52s-204.8 30.72-240.64 43.52c-10.24 5.12-15.36 12.8-15.36 23.04v281.6c0 76.8 33.28 145.92 84.48 197.12-135.68 30.72-238.08 153.6-238.08 299.52 0 43.52 33.28 76.8 76.8 76.8h665.6c43.52 0 76.8-33.28 76.8-76.8 0-145.92-99.84-266.24-235.52-299.52z m-174.08 296.96l-87.04-69.12-87.04-64 33.28-81.92 145.92 212.48-5.12 2.56z m-102.4-250.88c25.6 12.8 53.76 20.48 84.48 20.48h17.92c35.84 0 71.68-7.68 102.4-23.04l-99.84 151.04-104.96-148.48z m135.68 197.12l107.52-161.28 33.28 79.36-87.04 66.56-40.96 33.28-12.8-17.92z m-238.08-442.88c48.64-17.92 117.76-38.4 204.8-38.4 25.6 0 48.64 2.56 74.24 5.12 12.8 2.56 28.16-7.68 28.16-23.04 2.56-12.8-7.68-28.16-23.04-28.16-25.6-2.56-53.76-5.12-79.36-5.12-87.04 0-161.28 20.48-204.8 35.84v-207.36c38.4-12.8 110.08-33.28 204.8-33.28s166.4 20.48 204.8 33.28v207.36c-7.68-2.56-17.92-5.12-28.16-10.24-12.8-5.12-28.16 2.56-30.72 17.92-5.12 12.8 2.56 28.16 17.92 30.72 15.36 5.12 30.72 10.24 43.52 15.36v12.8c0 112.64-92.16 204.8-204.8 204.8h-12.8c-107.52-7.68-192-99.84-192-212.48v-5.12z m-153.6 499.2c0-112.64 71.68-207.36 171.52-240.64l-33.28 84.48c-7.68 20.48-2.56 46.08 17.92 58.88l87.04 64 71.68 56.32H179.2c-15.36 2.56-25.6-7.68-25.6-23.04z m691.2 25.6h-243.2l-15.36-23.04 43.52-33.28 87.04-64c17.92-12.8 25.6-38.4 17.92-58.88l-33.28-84.48c99.84 35.84 171.52 130.56 171.52 240.64-2.56 12.8-12.8 23.04-28.16 23.04z"
          p-id="5714"></path>
</svg>
